<svg width="120" height="109" viewBox="0 0 120 109" fill="none" xmlns="http://www.w3.org/2000/svg">
<path d="M62.9811 26.6385L62.8859 26.609C62.1283 26.3743 61.7043 25.5514 61.9272 24.7751C64.2913 16.5217 71.6566 10.4556 80.427 10.4556C81.2201 10.4556 81.8536 11.1222 81.8536 11.9319C81.8536 12.7416 81.2201 13.4081 80.427 13.4081C73.2071 13.4081 66.7219 18.424 64.6623 25.6134L62.9811 26.6385ZM62.9811 26.6385L62.9837 26.6354M62.9811 26.6385L62.9837 26.6354M62.9837 26.6354C63.7159 26.8062 64.4502 26.3575 64.6622 25.6136L62.9837 26.6354Z" fill="#FEAF00" stroke="#F9FFF9" stroke-width="0.3"/>
<path d="M98.2984 76.9187H90.639C89.9341 76.9187 89.3623 76.3247 89.3623 75.5924C89.3623 74.8601 89.9341 74.2662 90.639 74.2662H98.2984C108.857 74.2662 117.447 65.3414 117.447 54.3725C117.447 43.4036 108.857 34.4788 98.2984 34.4788H98.1142C97.744 34.4788 97.392 34.3121 97.1495 34.0213C96.9069 33.7305 96.7975 33.3449 96.8504 32.9641C96.9644 32.138 97.0218 31.3082 97.0218 30.5001C97.0218 20.9938 89.5764 13.2588 80.426 13.2588C76.8662 13.2588 73.4713 14.4146 70.608 16.6019C69.9788 17.0822 69.0852 16.869 68.7214 16.15C60.6124 0.108204 39.4324 -2.04605 28.4516 11.9089C23.8259 17.788 22.0084 25.4356 23.4648 32.8893C23.6253 33.7125 23.0189 34.4799 22.2137 34.4799H21.7022C11.1439 34.4799 2.55331 43.4046 2.55331 54.3735C2.55331 65.3424 11.1439 74.2672 21.7022 74.2672H29.3616C30.0665 74.2672 30.6382 74.8611 30.6382 75.5934C30.6382 76.3257 30.0665 76.9197 29.3616 76.9197H21.7022C9.73585 76.9197 0 66.8052 0 54.3734C0 42.2904 9.19685 32.3966 20.7 31.8509C19.6195 24.1179 21.6858 16.3176 26.4747 10.2303C38.2312 -4.71171 60.7616 -3.03691 70.2857 13.6245C73.3241 11.6456 76.8008 10.6074 80.4256 10.6074C91.5119 10.6074 100.297 20.4103 99.528 31.8633C110.925 32.5273 120 42.369 120 54.3724C120 66.8052 110.264 76.9187 98.2978 76.9187L98.2984 76.9187Z" fill="#FEAF00"/>
<path d="M27.7641 74.8434C27.7641 93.2034 42.1431 108.15 59.8292 108.15C77.5156 108.15 91.8944 93.2032 91.8944 74.8434C91.8944 56.4834 77.5156 41.5369 59.8292 41.5369C42.1429 41.5369 27.7641 56.4836 27.7641 74.8434ZM30.6178 74.8434C30.6178 58.1015 43.7276 44.49 59.8292 44.49C75.9306 44.49 89.0406 58.1012 89.0406 74.8434C89.0406 91.5853 75.9306 105.197 59.8292 105.197C43.7278 105.197 30.6178 91.5856 30.6178 74.8434Z" fill="#FEAF00" stroke="#F9FFF9" stroke-width="0.3"/>
<path d="M59.3278 88.191C59.3278 88.8046 59.8082 89.312 60.4124 89.312C61.0166 89.312 61.497 88.8053 61.497 88.191V62.9458C61.497 62.3323 61.0166 61.8248 60.4124 61.8248C59.8082 61.8248 59.3278 62.3323 59.3278 62.9458V88.191Z" fill="#FEAF00" stroke="#FEAF00" stroke-width="0.3"/>
<path d="M60.4121 64.5376L67.12 71.5064C67.331 71.7256 67.6099 71.8367 67.8889 71.8367L60.4121 64.5376ZM60.4121 64.5376L53.7043 71.5063L60.4121 64.5376ZM52.1663 71.5064C52.5904 71.947 53.2806 71.9471 53.7042 71.5064L67.889 71.8367C68.1676 71.8367 68.4466 71.7266 68.6579 71.5064C69.0789 71.0689 69.0789 70.3626 68.6579 69.9251L61.181 62.1575C60.757 61.7169 60.0667 61.7167 59.6431 62.1575C59.6431 62.1575 59.643 62.1576 59.643 62.1576L52.1663 69.9251C51.7452 70.3626 51.7452 71.0689 52.1663 71.5064Z" fill="#FEAF00" stroke="#FEAF00" stroke-width="0.3"/>
</svg>
