<svg width="24" height="24" viewBox="0 0 24 24" fill="none" xmlns="http://www.w3.org/2000/svg">
<path d="M23.8322 13.3597L18.1677 10.117V3.67301C18.1677 3.55465 18.1039 3.44449 17.9999 3.38472L12.1678 0.0448245C12.0638 -0.0149415 11.9362 -0.0149415 11.8322 0.0448245L6.0001 3.38472C5.89612 3.44449 5.83232 3.55465 5.83232 3.67301V10.117L0.167783 13.3597C0.0638052 13.4195 0 13.5296 0 13.648V20.3278C0 20.4461 0.0638052 20.5563 0.167783 20.6161L5.99989 23.956C6.10387 24.0157 6.23148 24.0157 6.33546 23.956L12 20.7124L17.6645 23.956C17.7685 24.0157 17.8961 24.0157 18.0001 23.956L23.8322 20.6161C23.9362 20.5563 24 20.4461 24 20.3278V13.648C24 13.5296 23.9362 13.4195 23.8322 13.3597ZM17.8322 16.6033L16.4073 15.7877L21.5673 12.8334L22.9922 13.649L17.8322 16.6033ZM6.13231 10.7158L7.55726 11.5314L2.43296 14.4646L1.008 13.649L6.13231 10.7158ZM7.92946 5.06621V8.51621C7.92946 8.63457 7.99327 8.74472 8.09725 8.80449C8.20123 8.86308 8.32883 8.86425 8.434 8.80449L8.93735 8.51621L9.58838 9.63536H9.5872C9.664 9.76543 9.81761 9.82872 9.96412 9.79004C10.1106 9.75137 10.2134 9.62129 10.2146 9.47012L10.2359 6.38822L11.6644 7.2062V13.0715L6.5044 10.1172V4.25069L7.92946 5.06621ZM15.065 2.47286L9.90284 5.42717L8.93633 4.87403L14.0972 1.91972L15.065 2.47286ZM17.1611 3.67286L12.0001 6.62717L10.5752 5.81153L15.7352 2.85722L17.1611 3.67286ZM3.10513 14.8503L8.22732 11.9171L9.19501 12.4702L4.07161 15.4022L3.10513 14.8503ZM17.4953 10.1172L12.3353 13.0715V7.20497L17.4953 4.25066V10.1172ZM9.56579 6.00386L9.54925 8.23745L9.34838 7.89293H9.34956C9.25622 7.73355 9.05063 7.67847 8.88995 7.77105L8.59928 7.93746V5.4519L9.56579 6.00386ZM3.73368 15.9789L3.71832 18.2124L3.51745 17.8679H3.51864C3.47374 17.7918 3.40048 17.7355 3.31423 17.7132C3.22797 17.6898 3.13581 17.7015 3.05901 17.7461L2.76834 17.9125V15.4257L3.73368 15.9789ZM9.86585 12.8547L11.2908 13.6703L6.1674 16.6035L4.74245 15.7878L9.86585 12.8547ZM6.50439 17.1801L11.6644 14.2257V20.1354L6.50439 23.0898V17.1801ZM17.8673 10.716L19.2545 11.5105L14.0969 14.4648L12.7098 13.6703L17.8673 10.716ZM20.8921 12.448L15.7346 15.4023L14.768 14.8503L19.928 11.896L20.8921 12.448ZM15.3979 15.979L15.3825 18.2126L15.1817 17.868C15.1368 17.7919 15.0635 17.7356 14.9773 17.7134C14.891 17.6899 14.7989 17.7016 14.722 17.7462L14.4314 17.9126V15.4259L15.3979 15.979ZM11.9998 0.718877L13.4248 1.53452L8.26479 4.48883L6.83984 3.67319L11.9998 0.718877ZM0.672282 14.2258L2.09605 15.0414V18.4902C2.09605 18.6086 2.15986 18.7187 2.26384 18.7785C2.36781 18.8383 2.49542 18.8383 2.59941 18.7785L3.10276 18.4902L3.75379 19.6094C3.83059 19.7394 3.9842 19.8027 4.13071 19.7641C4.27723 19.7266 4.38002 19.5953 4.3812 19.4441L4.40247 16.3622L5.83099 17.1802V23.0899L0.672198 20.1356L0.672282 14.2258ZM12.3365 14.2258L13.7603 15.0414V18.4902H13.7591C13.7591 18.6086 13.8241 18.7187 13.9281 18.7785C14.032 18.8383 14.1596 18.8383 14.2636 18.7785L14.767 18.4902L15.418 19.6094C15.4936 19.7394 15.6484 19.8027 15.7949 19.7641C15.9414 19.7266 16.0442 19.5953 16.0442 19.4441L16.0655 16.3622L17.494 17.1802V23.0899L12.3352 20.1356L12.3365 14.2258ZM18.1674 23.0899V17.1802L23.3274 14.2259V20.1356L18.1674 23.0899Z" fill="black"/>
</svg>
